<mxfile host="app.diagrams.net" modified="2021-10-04T04:48:04.068Z" agent="5.0 (Windows NT 10.0; Win64; x64) AppleWebKit/537.36 (KHTML, like Gecko) Chrome/94.0.4606.61 Safari/537.36 Edg/94.0.992.31" etag="gJXEq82Wd3kFGDb5i4-G" version="15.4.1" type="github">
  <diagram id="f6emNsFc6hiHo_Sani7-" name="Page-1">
    <mxGraphModel dx="1616" dy="934" grid="1" gridSize="10" guides="1" tooltips="1" connect="1" arrows="1" fold="1" page="1" pageScale="1" pageWidth="1169" pageHeight="827" background="#182E3E" math="0" shadow="0">
      <root>
        <mxCell id="0" />
        <mxCell id="1" parent="0" />
        <mxCell id="o1xrH8xLCu15C4UuhqLv-3" style="edgeStyle=orthogonalEdgeStyle;curved=0;rounded=1;sketch=0;orthogonalLoop=1;jettySize=auto;html=1;exitX=0.25;exitY=0;exitDx=0;exitDy=0;entryX=1;entryY=0.5;entryDx=0;entryDy=0;fontSize=12;fontColor=#FFFFFF;strokeColor=#FFFFFF;" edge="1" parent="1" source="o1xrH8xLCu15C4UuhqLv-1" target="o1xrH8xLCu15C4UuhqLv-2">
          <mxGeometry relative="1" as="geometry" />
        </mxCell>
        <mxCell id="o1xrH8xLCu15C4UuhqLv-1" value="&lt;font style=&quot;font-size: 18px&quot;&gt;Robotics and &lt;br&gt;Artificial Intelligence&lt;/font&gt;" style="whiteSpace=wrap;html=1;rounded=1;fillColor=#EEEEEE;strokeColor=#FFFFFF;fontColor=#1A1A1A;" vertex="1" parent="1">
          <mxGeometry x="495" y="379" width="180" height="70" as="geometry" />
        </mxCell>
        <mxCell id="o1xrH8xLCu15C4UuhqLv-2" value="&lt;font style=&quot;font-size: 12px&quot;&gt;Ethical Considerations&lt;/font&gt;" style="rounded=1;whiteSpace=wrap;html=1;sketch=0;fontSize=18;fontColor=#1A1A1A;strokeColor=#FFFFFF;fillColor=#EEEEEE;" vertex="1" parent="1">
          <mxGeometry x="330" y="230" width="110" height="60" as="geometry" />
        </mxCell>
      </root>
    </mxGraphModel>
  </diagram>
</mxfile>
